HIERARCHY
ROOT joint_Root
{
	OFFSET 0.0 0.0 0.0
	CHANNELS 6 Xposition Yposition Zposition Zrotation Xrotation Yrotation 
	JOINT Hips
	{
		OFFSET 4.5925 91.4895 -427.239
		CHANNELS 6 Xposition Yposition Zposition Zrotation Xrotation Yrotation 
		JOINT Spine
		{
			OFFSET 15.7357 0.0 0.0
			CHANNELS 6 Xposition Yposition Zposition Zrotation Xrotation Yrotation 
			JOINT Chest
			{
				OFFSET 8.98455 -0.406207 0.0
				CHANNELS 6 Xposition Yposition Zposition Zrotation Xrotation Yrotation 
				JOINT Neck
				{
					OFFSET 16.3773 0.0 0.0
					CHANNELS 6 Xposition Yposition Zposition Zrotation Xrotation Yrotation 
					JOINT Head
					{
						OFFSET 6.45672 0.0 0.0
						CHANNELS 6 Xposition Yposition Zposition Zrotation Xrotation Yrotation 
						End Site
						{
							OFFSET 0.0 0.0 0.0
						}
					}
				}
				JOINT Shoulder_L
				{
					OFFSET 12.9942 -0.242716 4.98039
					CHANNELS 6 Xposition Yposition Zposition Zrotation Xrotation Yrotation 
					JOINT UpperArm_L
					{
						OFFSET 5.34809 0.0 0.0
						CHANNELS 6 Xposition Yposition Zposition Zrotation Xrotation Yrotation 
						JOINT LowerArm_L
						{
							OFFSET 24.3286 1.87007e-05 0.0
							CHANNELS 6 Xposition Yposition Zposition Zrotation Xrotation Yrotation 
							JOINT Hand_L
							{
								OFFSET 22.2916 0.0 0.0
								CHANNELS 6 Xposition Yposition Zposition Zrotation Xrotation Yrotation 
								End Site
								{
									OFFSET 0.0 0.0 0.0
								}
							}
						}
					}
				}
				JOINT Shoulder_R
				{
					OFFSET 12.9945 -0.242716 -4.98039
					CHANNELS 6 Xposition Yposition Zposition Zrotation Xrotation Yrotation 
					JOINT UpperArm_R
					{
						OFFSET -5.34813 0.0 0.0
						CHANNELS 6 Xposition Yposition Zposition Zrotation Xrotation Yrotation 
						JOINT LowerArm_R
						{
							OFFSET -24.3289 0.000322201 0.0
							CHANNELS 6 Xposition Yposition Zposition Zrotation Xrotation Yrotation 
							JOINT Hand_R
							{
								OFFSET -22.2915 -0.000108084 0.0
								CHANNELS 6 Xposition Yposition Zposition Zrotation Xrotation Yrotation 
								End Site
								{
									OFFSET 0.0 0.0 0.0
								}
							}
						}
					}
				}
			}
		}
		JOINT UpperLeg_L
		{
			OFFSET -2.19248 -6.46944 0.0
			CHANNELS 6 Xposition Yposition Zposition Zrotation Xrotation Yrotation 
			JOINT LowerLeg_L
			{
				OFFSET 39.0811 0.0 -1.23785e-05
				CHANNELS 6 Xposition Yposition Zposition Zrotation Xrotation Yrotation 
				JOINT Foot_L
				{
					OFFSET 40.9854 0.0 -1.26872e-05
					CHANNELS 6 Xposition Yposition Zposition Zrotation Xrotation Yrotation 
					JOINT Toes_L
					{
						OFFSET 11.7543 0.0 0.0
						CHANNELS 6 Xposition Yposition Zposition Zrotation Xrotation Yrotation 
						End Site
						{
							OFFSET 0.0 0.0 0.0
						}
					}
				}
			}
		}
		JOINT UpperLeg_R
		{
			OFFSET -2.19251 6.46944 0.0
			CHANNELS 6 Xposition Yposition Zposition Zrotation Xrotation Yrotation 
			JOINT LowerLeg_R
			{
				OFFSET -39.0811 -0.00228153 -0.0401928
				CHANNELS 6 Xposition Yposition Zposition Zrotation Xrotation Yrotation 
				JOINT Foot_R
				{
					OFFSET -40.9854 0.0 0.0
					CHANNELS 6 Xposition Yposition Zposition Zrotation Xrotation Yrotation 
					JOINT Toes_R
					{
						OFFSET -11.7543 0.0 0.0
						CHANNELS 6 Xposition Yposition Zposition Zrotation Xrotation Yrotation 
						End Site
						{
							OFFSET 0.0 0.0 0.0
						}
					}
				}
			}
		}
	}
}
MOTION
Frames:	8
Frame Time:	0.0333333
0.000000 0.000000 0.000000 0.000000 0.000000 -0.000000 3.173530 90.891400 -1.169900 91.077700 -7.752560 13.700200 15.735700 0.000005 -0.000001 90.055500 79.946900 -94.915200 8.984550 -0.406207 -0.000000 12.351200 -0.175629 -9.698760 16.377300 -0.000001 -0.000001 27.960400 0.319881 -5.646500 6.456720 -0.000001 -0.000000 10.108500 2.824770 -11.795900 12.994200 -0.242716 4.980390 -91.619200 5.436630 -73.387600 5.348090 -0.000007 -0.000001 -59.257700 29.431200 -15.519900 24.328600 0.000019 0.000005 11.493400 25.676500 -25.139500 22.291600 -0.000001 0.000005 11.729400 5.276540 0.720735 12.994500 -0.242716 -4.980390 90.293400 -1.113180 -75.235100 -5.348130 -0.000001 -0.000004 -69.649900 -41.281800 -81.599300 -24.328900 0.000322 -0.000009 10.892900 1.724510 -81.114200 -22.291500 -0.000108 -0.000004 29.047200 5.432750 -4.034080 -2.192480 -6.469440 -0.000000 -177.193000 -17.976200 4.857640 39.081100 -0.000007 -0.000012 -0.069990 0.126283 28.997000 40.985400 -0.000006 -0.000013 3.807610 6.353440 -70.402000 11.754300 -0.000000 0.000003 -0.000247 -0.002213 -16.660500 -2.192510 6.469440 -0.000001 167.877000 20.070800 -175.838000 -39.081100 -0.002282 -0.040193 -0.139546 0.246558 30.086800 -40.985400 0.000008 0.000006 2.893920 19.456300 -69.843600 -11.754300 -0.000006 -0.000006 -0.001728 -0.025257 -17.600100
0.000000 0.000000 0.000000 0.000000 0.000000 -0.000000 3.249870 90.890100 -1.114740 91.023400 -8.032710 13.664400 15.735700 0.000005 -0.000001 90.084900 79.958300 -94.936800 8.984550 -0.406207 -0.000000 12.328900 -0.164191 -9.684470 16.377300 -0.000001 -0.000001 28.136500 0.258815 -5.752960 6.456720 -0.000001 -0.000000 10.062800 2.780100 -11.798900 12.994200 -0.242716 4.980390 -91.626200 5.473820 -73.425600 5.348090 -0.000007 -0.000001 -59.130300 29.097500 -15.415300 24.328600 0.000019 0.000005 11.563400 25.662300 -25.288600 22.291600 -0.000001 0.000005 11.728600 5.277410 0.697229 12.994500 -0.242716 -4.980390 90.293200 -1.112160 -75.230500 -5.348130 -0.000001 -0.000004 -69.173000 -41.293700 -81.181300 -24.328900 0.000322 -0.000009 10.931300 1.719350 -81.171800 -22.291500 -0.000108 -0.000004 29.017100 5.436260 -4.155570 -2.192480 -6.469440 -0.000000 -177.153000 -18.160800 4.900440 39.081100 -0.000007 -0.000012 -0.072049 0.130079 28.981700 40.985400 -0.000006 -0.000013 3.823200 6.225700 -70.460600 11.754300 -0.000000 0.000003 -0.000274 -0.002413 -16.667700 -2.192510 6.469440 -0.000001 167.954000 19.897400 -175.891000 -39.081100 -0.002282 -0.040193 -0.132192 0.234067 30.065300 -40.985400 0.000008 0.000006 3.037140 19.498800 -69.893300 -11.754300 -0.000006 -0.000006 -0.001886 -0.027282 -17.682500
0.000000 0.000000 0.000000 0.000000 0.000000 -0.000000 3.328420 90.877900 -1.054830 91.019800 -8.285900 13.716600 15.735700 0.000005 -0.000001 90.096700 79.921800 -94.947800 8.984550 -0.406207 -0.000000 12.402000 -0.163033 -9.683150 16.377300 -0.000001 -0.000001 28.285700 0.269900 -5.840570 6.456720 -0.000001 -0.000000 9.913650 2.871880 -11.764900 12.994200 -0.242716 4.980390 -91.620200 5.447630 -73.409600 5.348090 -0.000007 -0.000001 -59.023600 28.956000 -15.446300 24.328600 0.000019 0.000005 11.559200 25.680900 -25.265300 22.291600 -0.000001 0.000005 11.700600 5.279980 0.626827 12.994500 -0.242716 -4.980390 90.291500 -1.104020 -75.208800 -5.348130 -0.000001 -0.000004 -68.787700 -41.364100 -80.872400 -24.328900 0.000322 -0.000009 11.003600 1.720160 -81.226200 -22.291500 -0.000108 -0.000004 28.704500 5.436820 -4.175080 -2.192480 -6.469440 -0.000000 -177.149000 -18.296500 5.016050 39.081100 -0.000007 -0.000012 -0.072182 0.130275 28.989800 40.985400 -0.000006 -0.000013 3.838000 6.096790 -70.533100 11.754300 -0.000000 0.000003 -0.000267 -0.002356 -16.665700 -2.192510 6.469440 -0.000001 167.920000 19.677300 -175.871000 -39.081100 -0.002282 -0.040193 -0.138025 0.244139 30.065600 -40.985400 0.000008 0.000006 2.909910 19.604400 -69.860500 -11.754300 -0.000006 -0.000006 -0.001981 -0.028482 -17.731200
0.000000 0.000000 0.000000 0.000000 0.000000 -0.000000 3.415260 90.872300 -1.018350 90.974400 -8.526900 13.640500 15.735700 0.000005 -0.000001 90.159000 79.939000 -94.984200 8.984550 -0.406207 -0.000000 12.368300 -0.138904 -9.633830 16.377300 -0.000001 -0.000001 28.445000 0.301417 -5.864070 6.456720 -0.000001 -0.000000 9.848020 2.965940 -11.740900 12.994200 -0.242716 4.980390 -91.606300 5.412480 -73.443300 5.348090 -0.000007 -0.000001 -59.023400 28.869900 -15.378700 24.328600 0.000019 0.000005 11.529600 25.738400 -25.161200 22.291600 -0.000001 0.000005 11.786300 5.279130 0.650481 12.994500 -0.242716 -4.980390 90.297900 -1.122740 -75.140300 -5.348130 -0.000001 -0.000004 -68.452500 -41.353400 -80.556400 -24.328900 0.000322 -0.000009 11.041800 1.726370 -81.225700 -22.291500 -0.000108 -0.000004 28.600400 5.437690 -4.204950 -2.192480 -6.469440 -0.000000 -177.140000 -18.493200 4.978810 39.081100 -0.000007 -0.000012 -0.069994 0.126238 29.006800 40.985400 -0.000006 -0.000013 3.884940 6.035410 -70.593300 11.754300 -0.000000 0.000003 -0.000260 -0.002304 -16.663800 -2.192510 6.469440 -0.000001 168.001000 19.472300 -175.990000 -39.081100 -0.002282 -0.040193 -0.139478 0.246853 30.045200 -40.985400 0.000008 0.000006 2.860900 19.637600 -69.826400 -11.754300 -0.000006 -0.000006 -0.001899 -0.027446 -17.689100
0.000000 0.000000 0.000000 0.000000 0.000000 -0.000000 3.492240 90.877800 -0.982041 90.924600 -8.726620 13.603600 15.735700 0.000005 -0.000001 90.093800 79.956100 -94.883700 8.984550 -0.406207 -0.000000 12.333200 -0.158754 -9.560930 16.377300 -0.000001 -0.000001 28.550900 0.331879 -5.874640 6.456720 -0.000001 -0.000000 9.900520 3.056190 -11.741100 12.994200 -0.242716 4.980390 -91.587000 5.365440 -73.496600 5.348090 -0.000007 -0.000001 -59.084600 28.834600 -15.185400 24.328600 0.000019 0.000005 11.534300 25.844800 -25.085800 22.291600 -0.000001 0.000005 11.810800 5.275920 0.737626 12.994500 -0.242716 -4.980390 90.312200 -1.176680 -75.140000 -5.348130 -0.000001 -0.000004 -68.230900 -41.302100 -80.313700 -24.328900 0.000322 -0.000009 11.149600 1.750470 -81.192000 -22.291500 -0.000108 -0.000004 28.525000 5.437110 -4.184890 -2.192480 -6.469440 -0.000000 -177.104000 -18.663100 5.015250 39.081100 -0.000007 -0.000012 -0.070331 0.127072 28.963600 40.985400 -0.000006 -0.000013 3.925870 6.005510 -70.622400 11.754300 -0.000000 0.000003 -0.000258 -0.002296 -16.663500 -2.192510 6.469440 -0.000001 168.062000 19.353700 -176.029000 -39.081100 -0.002282 -0.040193 -0.130973 0.232630 29.993800 -40.985400 0.000008 0.000006 2.971050 19.644200 -69.837800 -11.754300 -0.000006 -0.000006 -0.001838 -0.026675 -17.657800
0.000000 0.000000 0.000000 0.000000 0.000000 -0.000000 3.579490 90.881300 -0.941404 90.907900 -8.900780 13.522700 15.735700 0.000005 -0.000001 90.035900 79.985700 -94.802800 8.984550 -0.406207 -0.000000 12.273200 -0.175510 -9.513220 16.377300 -0.000001 -0.000001 28.682300 0.321007 -5.824480 6.456720 -0.000001 -0.000000 9.817530 3.119500 -11.682900 12.994200 -0.242716 4.980390 -91.547500 5.250160 -73.551700 5.348090 -0.000007 -0.000001 -59.246300 28.767800 -15.067900 24.328600 0.000019 0.000005 11.510700 26.074500 -24.859100 22.291600 -0.000001 0.000005 11.583200 5.275360 0.752883 12.994500 -0.242716 -4.980390 90.322400 -1.211280 -75.094400 -5.348130 -0.000001 -0.000004 -68.115900 -41.178200 -80.204400 -24.328900 0.000322 -0.000009 11.006800 1.755900 -81.049500 -22.291500 -0.000108 -0.000004 28.534700 5.437200 -4.188150 -2.192480 -6.469440 -0.000000 -177.124000 -18.853900 4.999270 39.081100 -0.000007 -0.000012 -0.068523 0.124062 28.913200 40.985400 -0.000006 -0.000013 3.978470 5.985290 -70.646000 11.754300 -0.000000 0.000003 -0.000264 -0.002340 -16.665100 -2.192510 6.469440 -0.000001 168.066000 19.265200 -176.101000 -39.081100 -0.002282 -0.040193 -0.130850 0.233088 29.922500 -40.985400 0.000008 0.000006 2.874670 19.745400 -69.770300 -11.754300 -0.000006 -0.000006 -0.001922 -0.027735 -17.700900
0.000000 0.000000 0.000000 0.000000 0.000000 -0.000000 3.654990 90.883600 -0.903805 90.836500 -9.080700 13.449500 15.735700 0.000005 -0.000001 89.934300 80.019100 -94.661300 8.984550 -0.406207 -0.000000 12.204900 -0.206230 -9.430200 16.377300 -0.000001 -0.000001 28.732400 0.285001 -5.741880 6.456720 -0.000001 -0.000000 9.677470 3.142750 -11.638400 12.994200 -0.242716 4.980390 -91.538900 5.232880 -73.587100 5.348090 -0.000007 -0.000001 -59.340100 28.713500 -14.836600 24.328600 0.000019 0.000005 11.430600 26.070100 -24.706100 22.291600 -0.000001 0.000005 11.773700 5.274010 0.789609 12.994500 -0.242716 -4.980390 90.331800 -1.243120 -75.055300 -5.348130 -0.000001 -0.000004 -67.920800 -40.920000 -79.967500 -24.328900 0.000322 -0.000009 10.834900 1.741840 -80.978000 -22.291500 -0.000108 -0.000004 28.533300 5.437920 -4.213060 -2.192480 -6.469440 -0.000000 -177.102000 -18.944300 4.979980 39.081100 -0.000007 -0.000012 -0.068501 0.124082 28.901500 40.985400 -0.000006 -0.000013 4.005260 5.906030 -70.689100 11.754300 -0.000000 0.000003 -0.000283 -0.002480 -16.670100 -2.192510 6.469440 -0.000001 168.129000 19.188400 -176.149000 -39.081100 -0.002282 -0.040193 -0.129942 0.232299 29.838100 -40.985400 0.000008 0.000006 2.828270 19.849300 -69.711500 -11.754300 -0.000006 -0.000006 -0.001847 -0.026783 -17.662200
0.000000 0.000000 0.000000 0.000000 0.000000 -0.000000 3.732740 90.883400 -0.860649 90.779800 -9.281580 13.382100 15.735700 0.000005 -0.000001 89.911500 80.053200 -94.602800 8.984550 -0.406207 -0.000000 12.136300 -0.209793 -9.358210 16.377300 -0.000001 -0.000001 28.686700 0.229208 -5.706850 6.456720 -0.000001 -0.000000 9.575650 3.155970 -11.561900 12.994200 -0.242716 4.980390 -91.536500 5.226080 -73.591700 5.348090 -0.000007 -0.000001 -59.425600 28.664900 -14.668200 24.328600 0.000019 0.000005 11.367800 26.147000 -24.523900 22.291600 -0.000001 0.000005 11.855100 5.273410 0.805949 12.994500 -0.242716 -4.980390 90.317700 -1.190870 -75.058600 -5.348130 -0.000001 -0.000004 -67.381000 -40.621100 -79.433000 -24.328900 0.000322 -0.000009 10.738900 1.705170 -81.085300 -22.291500 -0.000108 -0.000004 28.506700 5.434900 -4.108010 -2.192480 -6.469440 -0.000000 -177.085000 -19.074900 4.963610 39.081100 -0.000007 -0.000012 -0.071910 0.130296 28.894200 40.985400 -0.000006 -0.000013 4.028400 5.804290 -70.732500 11.754300 -0.000000 0.000003 -0.000280 -0.002454 -16.669200 -2.192510 6.469440 -0.000001 168.187000 19.053200 -176.213000 -39.081100 -0.002282 -0.040193 -0.130841 0.234536 29.767700 -40.985400 0.000008 0.000006 2.738020 19.917900 -69.642500 -11.754300 -0.000006 -0.000006 -0.001772 -0.025827 -17.623300
